<svg width="192" height="36" viewBox="0 0 192 36" fill="none" xmlns="http://www.w3.org/2000/svg">
<path d="M39.822 25.084C39.626 25.084 39.4113 25.0793 39.178 25.07C38.954 25.0607 38.7253 25.0467 38.492 25.028C38.268 25.0093 38.044 24.986 37.82 24.958C37.596 24.93 37.3907 24.8927 37.204 24.846V15.438C37.3907 15.3913 37.596 15.354 37.82 15.326C38.044 15.298 38.268 15.2747 38.492 15.256C38.7253 15.2373 38.954 15.2233 39.178 15.214C39.402 15.2047 39.612 15.2 39.808 15.2C40.368 15.2 40.8907 15.242 41.376 15.326C41.8707 15.41 42.2953 15.5547 42.65 15.76C43.014 15.956 43.2987 16.2173 43.504 16.544C43.7093 16.8707 43.812 17.272 43.812 17.748C43.812 18.28 43.686 18.7187 43.434 19.064C43.182 19.4 42.846 19.652 42.426 19.82C42.9953 19.988 43.448 20.254 43.784 20.618C44.12 20.982 44.288 21.4953 44.288 22.158C44.288 23.1287 43.9287 23.8613 43.21 24.356C42.5007 24.8413 41.3713 25.084 39.822 25.084ZM38.548 20.478V23.894C38.6507 23.9033 38.772 23.9127 38.912 23.922C39.0333 23.9313 39.1733 23.9407 39.332 23.95C39.5 23.95 39.6913 23.95 39.906 23.95C40.3073 23.95 40.6853 23.9267 41.04 23.88C41.404 23.824 41.7213 23.7307 41.992 23.6C42.2627 23.4693 42.4773 23.2873 42.636 23.054C42.804 22.8207 42.888 22.5267 42.888 22.172C42.888 21.8547 42.8273 21.5887 42.706 21.374C42.5847 21.15 42.4073 20.9727 42.174 20.842C41.95 20.7113 41.6793 20.618 41.362 20.562C41.0447 20.506 40.69 20.478 40.298 20.478H38.548ZM38.548 19.386H39.976C40.312 19.386 40.6293 19.3627 40.928 19.316C41.2267 19.2693 41.4833 19.1853 41.698 19.064C41.922 18.9427 42.0947 18.784 42.216 18.588C42.3467 18.392 42.412 18.1447 42.412 17.846C42.412 17.566 42.3467 17.3327 42.216 17.146C42.0853 16.95 41.9033 16.796 41.67 16.684C41.446 16.5627 41.18 16.474 40.872 16.418C40.564 16.362 40.2373 16.334 39.892 16.334C39.5467 16.334 39.276 16.3387 39.08 16.348C38.884 16.3573 38.7067 16.3713 38.548 16.39V19.386ZM46.9181 25H45.6161V17.72H46.9181V25ZM46.2601 16.404C46.0268 16.404 45.8261 16.3293 45.6581 16.18C45.4994 16.0213 45.4201 15.8113 45.4201 15.55C45.4201 15.2887 45.4994 15.0833 45.6581 14.934C45.8261 14.7753 46.0268 14.696 46.2601 14.696C46.4934 14.696 46.6894 14.7753 46.8481 14.934C47.0161 15.0833 47.1001 15.2887 47.1001 15.55C47.1001 15.8113 47.0161 16.0213 46.8481 16.18C46.6894 16.3293 46.4934 16.404 46.2601 16.404ZM49.8751 17.72H52.6331V18.812H49.8751V22.172C49.8751 22.536 49.9031 22.8393 49.9591 23.082C50.0151 23.3153 50.0991 23.502 50.2111 23.642C50.3231 23.7727 50.4631 23.866 50.6311 23.922C50.7991 23.978 50.9951 24.006 51.2191 24.006C51.6111 24.006 51.9238 23.964 52.1571 23.88C52.3998 23.7867 52.5678 23.7213 52.6611 23.684L52.9131 24.762C52.7824 24.8273 52.5538 24.9067 52.2271 25C51.9004 25.1027 51.5271 25.154 51.1071 25.154C50.6124 25.154 50.2018 25.0933 49.8751 24.972C49.5578 24.8413 49.3011 24.65 49.1051 24.398C48.9091 24.146 48.7691 23.838 48.6851 23.474C48.6104 23.1007 48.5731 22.6713 48.5731 22.186V15.69L49.8751 15.466V17.72ZM53.8739 25V15.298H59.7259V16.46H55.2319V19.386H59.2219V20.534H55.2319V25H53.8739ZM63.101 17.566C63.213 17.566 63.339 17.5753 63.479 17.594C63.6283 17.6033 63.773 17.622 63.913 17.65C64.053 17.6687 64.179 17.692 64.291 17.72C64.4123 17.7387 64.501 17.7573 64.557 17.776L64.333 18.91C64.2303 18.8727 64.0576 18.8307 63.815 18.784C63.5816 18.728 63.2783 18.7 62.905 18.7C62.6623 18.7 62.4196 18.728 62.177 18.784C61.9436 18.8307 61.7896 18.8633 61.715 18.882V25H60.413V18.028C60.721 17.916 61.1036 17.8133 61.561 17.72C62.0183 17.6173 62.5316 17.566 63.101 17.566ZM64.9074 21.374C64.9074 20.73 65.0007 20.17 65.1874 19.694C65.374 19.2087 65.6214 18.8073 65.9294 18.49C66.2374 18.1727 66.592 17.9347 66.9934 17.776C67.3947 17.6173 67.8054 17.538 68.2254 17.538C69.2054 17.538 69.9567 17.846 70.4794 18.462C71.002 19.0687 71.2634 19.9973 71.2634 21.248C71.2634 21.304 71.2634 21.3787 71.2634 21.472C71.2634 21.556 71.2587 21.6353 71.2494 21.71H66.2654C66.3214 22.466 66.5407 23.04 66.9234 23.432C67.306 23.824 67.9034 24.02 68.7154 24.02C69.1727 24.02 69.5554 23.9827 69.8634 23.908C70.1807 23.824 70.4187 23.7447 70.5774 23.67L70.7594 24.762C70.6007 24.846 70.3207 24.9347 69.9194 25.028C69.5274 25.1213 69.0794 25.168 68.5754 25.168C67.9407 25.168 67.39 25.0747 66.9234 24.888C66.466 24.692 66.088 24.426 65.7894 24.09C65.4907 23.754 65.2667 23.3573 65.1174 22.9C64.9774 22.4333 64.9074 21.9247 64.9074 21.374ZM69.9054 20.66C69.9147 20.072 69.7654 19.5913 69.4574 19.218C69.1587 18.8353 68.7434 18.644 68.2114 18.644C67.9127 18.644 67.6467 18.7047 67.4134 18.826C67.1894 18.938 66.998 19.0873 66.8394 19.274C66.6807 19.4607 66.5547 19.6753 66.4614 19.918C66.3774 20.1607 66.3214 20.408 66.2934 20.66H69.9054ZM72.2277 21.374C72.2277 20.73 72.321 20.17 72.5077 19.694C72.6943 19.2087 72.9417 18.8073 73.2497 18.49C73.5577 18.1727 73.9123 17.9347 74.3137 17.776C74.715 17.6173 75.1257 17.538 75.5457 17.538C76.5257 17.538 77.277 17.846 77.7997 18.462C78.3223 19.0687 78.5837 19.9973 78.5837 21.248C78.5837 21.304 78.5837 21.3787 78.5837 21.472C78.5837 21.556 78.579 21.6353 78.5697 21.71H73.5857C73.6417 22.466 73.861 23.04 74.2437 23.432C74.6263 23.824 75.2237 24.02 76.0357 24.02C76.493 24.02 76.8757 23.9827 77.1837 23.908C77.501 23.824 77.739 23.7447 77.8977 23.67L78.0797 24.762C77.921 24.846 77.641 24.9347 77.2397 25.028C76.8477 25.1213 76.3997 25.168 75.8957 25.168C75.261 25.168 74.7103 25.0747 74.2437 24.888C73.7863 24.692 73.4083 24.426 73.1097 24.09C72.811 23.754 72.587 23.3573 72.4377 22.9C72.2977 22.4333 72.2277 21.9247 72.2277 21.374ZM77.2257 20.66C77.235 20.072 77.0857 19.5913 76.7777 19.218C76.479 18.8353 76.0637 18.644 75.5317 18.644C75.233 18.644 74.967 18.7047 74.7337 18.826C74.5097 18.938 74.3183 19.0873 74.1597 19.274C74.001 19.4607 73.875 19.6753 73.7817 19.918C73.6977 20.1607 73.6417 20.408 73.6137 20.66H77.2257ZM84.784 18.7C84.588 18.9147 84.3267 19.218 84 19.61C83.6827 20.002 83.3373 20.436 82.964 20.912C82.6 21.388 82.2313 21.8873 81.858 22.41C81.494 22.9327 81.172 23.432 80.892 23.908H84.896V25H79.338V24.132C79.562 23.7213 79.8373 23.2687 80.164 22.774C80.4907 22.2793 80.8313 21.7893 81.186 21.304C81.55 20.8093 81.9 20.3473 82.236 19.918C82.5813 19.4793 82.88 19.1107 83.132 18.812H79.534V17.72H84.784V18.7ZM85.3781 21.374C85.3781 20.73 85.4714 20.17 85.6581 19.694C85.8447 19.2087 86.0921 18.8073 86.4001 18.49C86.7081 18.1727 87.0627 17.9347 87.4641 17.776C87.8654 17.6173 88.2761 17.538 88.6961 17.538C89.6761 17.538 90.4274 17.846 90.9501 18.462C91.4727 19.0687 91.7341 19.9973 91.7341 21.248C91.7341 21.304 91.7341 21.3787 91.7341 21.472C91.7341 21.556 91.7294 21.6353 91.7201 21.71H86.7361C86.7921 22.466 87.0114 23.04 87.3941 23.432C87.7767 23.824 88.3741 24.02 89.1861 24.02C89.6434 24.02 90.0261 23.9827 90.3341 23.908C90.6514 23.824 90.8894 23.7447 91.0481 23.67L91.2301 24.762C91.0714 24.846 90.7914 24.9347 90.3901 25.028C89.9981 25.1213 89.5501 25.168 89.0461 25.168C88.4114 25.168 87.8607 25.0747 87.3941 24.888C86.9367 24.692 86.5587 24.426 86.2601 24.09C85.9614 23.754 85.7374 23.3573 85.5881 22.9C85.4481 22.4333 85.3781 21.9247 85.3781 21.374ZM90.3761 20.66C90.3854 20.072 90.2361 19.5913 89.9281 19.218C89.6294 18.8353 89.2141 18.644 88.6821 18.644C88.3834 18.644 88.1174 18.7047 87.8841 18.826C87.6601 18.938 87.4687 19.0873 87.3101 19.274C87.1514 19.4607 87.0254 19.6753 86.9321 19.918C86.8481 20.1607 86.7921 20.408 86.7641 20.66H90.3761ZM95.7924 17.566C95.9044 17.566 96.0304 17.5753 96.1704 17.594C96.3197 17.6033 96.4644 17.622 96.6044 17.65C96.7444 17.6687 96.8704 17.692 96.9824 17.72C97.1037 17.7387 97.1924 17.7573 97.2484 17.776L97.0244 18.91C96.9217 18.8727 96.749 18.8307 96.5064 18.784C96.273 18.728 95.9697 18.7 95.5964 18.7C95.3537 18.7 95.111 18.728 94.8684 18.784C94.635 18.8307 94.481 18.8633 94.4064 18.882V25H93.1044V18.028C93.4124 17.916 93.795 17.8133 94.2524 17.72C94.7097 17.6173 95.223 17.566 95.7924 17.566ZM103.447 25.084C103.251 25.084 103.036 25.0793 102.803 25.07C102.579 25.0607 102.35 25.0467 102.117 25.028C101.893 25.0093 101.669 24.986 101.445 24.958C101.221 24.93 101.016 24.8927 100.829 24.846V15.438C101.016 15.3913 101.221 15.354 101.445 15.326C101.669 15.298 101.893 15.2747 102.117 15.256C102.35 15.2373 102.579 15.2233 102.803 15.214C103.027 15.2047 103.237 15.2 103.433 15.2C103.993 15.2 104.516 15.242 105.001 15.326C105.496 15.41 105.92 15.5547 106.275 15.76C106.639 15.956 106.924 16.2173 107.129 16.544C107.334 16.8707 107.437 17.272 107.437 17.748C107.437 18.28 107.311 18.7187 107.059 19.064C106.807 19.4 106.471 19.652 106.051 19.82C106.62 19.988 107.073 20.254 107.409 20.618C107.745 20.982 107.913 21.4953 107.913 22.158C107.913 23.1287 107.554 23.8613 106.835 24.356C106.126 24.8413 104.996 25.084 103.447 25.084ZM102.173 20.478V23.894C102.276 23.9033 102.397 23.9127 102.537 23.922C102.658 23.9313 102.798 23.9407 102.957 23.95C103.125 23.95 103.316 23.95 103.531 23.95C103.932 23.95 104.31 23.9267 104.665 23.88C105.029 23.824 105.346 23.7307 105.617 23.6C105.888 23.4693 106.102 23.2873 106.261 23.054C106.429 22.8207 106.513 22.5267 106.513 22.172C106.513 21.8547 106.452 21.5887 106.331 21.374C106.21 21.15 106.032 20.9727 105.799 20.842C105.575 20.7113 105.304 20.618 104.987 20.562C104.67 20.506 104.315 20.478 103.923 20.478H102.173ZM102.173 19.386H103.601C103.937 19.386 104.254 19.3627 104.553 19.316C104.852 19.2693 105.108 19.1853 105.323 19.064C105.547 18.9427 105.72 18.784 105.841 18.588C105.972 18.392 106.037 18.1447 106.037 17.846C106.037 17.566 105.972 17.3327 105.841 17.146C105.71 16.95 105.528 16.796 105.295 16.684C105.071 16.5627 104.805 16.474 104.497 16.418C104.189 16.362 103.862 16.334 103.517 16.334C103.172 16.334 102.901 16.3387 102.705 16.348C102.509 16.3573 102.332 16.3713 102.173 16.39V19.386ZM115.037 24.79C114.738 24.8647 114.342 24.944 113.847 25.028C113.362 25.112 112.797 25.154 112.153 25.154C111.593 25.154 111.122 25.0747 110.739 24.916C110.356 24.748 110.048 24.5147 109.815 24.216C109.582 23.9173 109.414 23.5673 109.311 23.166C109.208 22.7553 109.157 22.3027 109.157 21.808V17.72H110.459V21.528C110.459 22.4147 110.599 23.0493 110.879 23.432C111.159 23.8147 111.63 24.006 112.293 24.006C112.433 24.006 112.578 24.0013 112.727 23.992C112.876 23.9827 113.016 23.9733 113.147 23.964C113.278 23.9453 113.394 23.9313 113.497 23.922C113.609 23.9033 113.688 23.8847 113.735 23.866V17.72H115.037V24.79ZM118.474 24.062C119.006 24.062 119.398 23.992 119.65 23.852C119.911 23.712 120.042 23.488 120.042 23.18C120.042 22.8627 119.916 22.6107 119.664 22.424C119.412 22.2373 118.997 22.0273 118.418 21.794C118.138 21.682 117.867 21.57 117.606 21.458C117.354 21.3367 117.135 21.1967 116.948 21.038C116.761 20.8793 116.612 20.688 116.5 20.464C116.388 20.24 116.332 19.9647 116.332 19.638C116.332 18.994 116.57 18.4853 117.046 18.112C117.522 17.7293 118.171 17.538 118.992 17.538C119.197 17.538 119.403 17.552 119.608 17.58C119.813 17.5987 120.005 17.6267 120.182 17.664C120.359 17.692 120.513 17.7247 120.644 17.762C120.784 17.7993 120.891 17.832 120.966 17.86L120.728 18.98C120.588 18.9053 120.369 18.8307 120.07 18.756C119.771 18.672 119.412 18.63 118.992 18.63C118.628 18.63 118.311 18.7047 118.04 18.854C117.769 18.994 117.634 19.218 117.634 19.526C117.634 19.6847 117.662 19.8247 117.718 19.946C117.783 20.0673 117.877 20.1793 117.998 20.282C118.129 20.3753 118.287 20.464 118.474 20.548C118.661 20.632 118.885 20.7207 119.146 20.814C119.491 20.9447 119.799 21.0753 120.07 21.206C120.341 21.3273 120.569 21.472 120.756 21.64C120.952 21.808 121.101 22.0133 121.204 22.256C121.307 22.4893 121.358 22.7787 121.358 23.124C121.358 23.796 121.106 24.3047 120.602 24.65C120.107 24.9953 119.398 25.168 118.474 25.168C117.83 25.168 117.326 25.112 116.962 25C116.598 24.8973 116.351 24.818 116.22 24.762L116.458 23.642C116.607 23.698 116.845 23.782 117.172 23.894C117.499 24.006 117.933 24.062 118.474 24.062ZM123.83 25H122.528V17.72H123.83V25ZM123.172 16.404C122.939 16.404 122.738 16.3293 122.57 16.18C122.412 16.0213 122.332 15.8113 122.332 15.55C122.332 15.2887 122.412 15.0833 122.57 14.934C122.738 14.7753 122.939 14.696 123.172 14.696C123.406 14.696 123.602 14.7753 123.76 14.934C123.928 15.0833 124.012 15.2887 124.012 15.55C124.012 15.8113 123.928 16.0213 123.76 16.18C123.602 16.3293 123.406 16.404 123.172 16.404ZM125.569 17.93C125.868 17.8553 126.265 17.776 126.759 17.692C127.254 17.608 127.823 17.566 128.467 17.566C129.046 17.566 129.527 17.65 129.909 17.818C130.292 17.9767 130.595 18.2053 130.819 18.504C131.053 18.7933 131.216 19.1433 131.309 19.554C131.403 19.9647 131.449 20.4173 131.449 20.912V25H130.147V21.192C130.147 20.744 130.115 20.3613 130.049 20.044C129.993 19.7267 129.895 19.47 129.755 19.274C129.615 19.078 129.429 18.938 129.195 18.854C128.962 18.7607 128.673 18.714 128.327 18.714C128.187 18.714 128.043 18.7187 127.893 18.728C127.744 18.7373 127.599 18.7513 127.459 18.77C127.329 18.7793 127.207 18.7933 127.095 18.812C126.993 18.8307 126.918 18.8447 126.871 18.854V25H125.569V17.93ZM132.702 21.374C132.702 20.73 132.796 20.17 132.982 19.694C133.169 19.2087 133.416 18.8073 133.724 18.49C134.032 18.1727 134.387 17.9347 134.788 17.776C135.19 17.6173 135.6 17.538 136.02 17.538C137 17.538 137.752 17.846 138.274 18.462C138.797 19.0687 139.058 19.9973 139.058 21.248C139.058 21.304 139.058 21.3787 139.058 21.472C139.058 21.556 139.054 21.6353 139.044 21.71H134.06C134.116 22.466 134.336 23.04 134.718 23.432C135.101 23.824 135.698 24.02 136.51 24.02C136.968 24.02 137.35 23.9827 137.658 23.908C137.976 23.824 138.214 23.7447 138.372 23.67L138.554 24.762C138.396 24.846 138.116 24.9347 137.714 25.028C137.322 25.1213 136.874 25.168 136.37 25.168C135.736 25.168 135.185 25.0747 134.718 24.888C134.261 24.692 133.883 24.426 133.584 24.09C133.286 23.754 133.062 23.3573 132.912 22.9C132.772 22.4333 132.702 21.9247 132.702 21.374ZM137.7 20.66C137.71 20.072 137.56 19.5913 137.252 19.218C136.954 18.8353 136.538 18.644 136.006 18.644C135.708 18.644 135.442 18.7047 135.208 18.826C134.984 18.938 134.793 19.0873 134.634 19.274C134.476 19.4607 134.35 19.6753 134.256 19.918C134.172 20.1607 134.116 20.408 134.088 20.66H137.7ZM142.123 24.062C142.655 24.062 143.047 23.992 143.299 23.852C143.56 23.712 143.691 23.488 143.691 23.18C143.691 22.8627 143.565 22.6107 143.313 22.424C143.061 22.2373 142.645 22.0273 142.067 21.794C141.787 21.682 141.516 21.57 141.255 21.458C141.003 21.3367 140.783 21.1967 140.597 21.038C140.41 20.8793 140.261 20.688 140.149 20.464C140.037 20.24 139.981 19.9647 139.981 19.638C139.981 18.994 140.219 18.4853 140.695 18.112C141.171 17.7293 141.819 17.538 142.641 17.538C142.846 17.538 143.051 17.552 143.257 17.58C143.462 17.5987 143.653 17.6267 143.831 17.664C144.008 17.692 144.162 17.7247 144.293 17.762C144.433 17.7993 144.54 17.832 144.615 17.86L144.377 18.98C144.237 18.9053 144.017 18.8307 143.719 18.756C143.42 18.672 143.061 18.63 142.641 18.63C142.277 18.63 141.959 18.7047 141.689 18.854C141.418 18.994 141.283 19.218 141.283 19.526C141.283 19.6847 141.311 19.8247 141.367 19.946C141.432 20.0673 141.525 20.1793 141.647 20.282C141.777 20.3753 141.936 20.464 142.123 20.548C142.309 20.632 142.533 20.7207 142.795 20.814C143.14 20.9447 143.448 21.0753 143.719 21.206C143.989 21.3273 144.218 21.472 144.405 21.64C144.601 21.808 144.75 22.0133 144.853 22.256C144.955 22.4893 145.007 22.7787 145.007 23.124C145.007 23.796 144.755 24.3047 144.251 24.65C143.756 24.9953 143.047 25.168 142.123 25.168C141.479 25.168 140.975 25.112 140.611 25C140.247 24.8973 139.999 24.818 139.869 24.762L140.107 23.642C140.256 23.698 140.494 23.782 140.821 23.894C141.147 24.006 141.581 24.062 142.123 24.062ZM147.871 24.062C148.403 24.062 148.795 23.992 149.047 23.852C149.308 23.712 149.439 23.488 149.439 23.18C149.439 22.8627 149.313 22.6107 149.061 22.424C148.809 22.2373 148.393 22.0273 147.815 21.794C147.535 21.682 147.264 21.57 147.003 21.458C146.751 21.3367 146.531 21.1967 146.345 21.038C146.158 20.8793 146.009 20.688 145.897 20.464C145.785 20.24 145.729 19.9647 145.729 19.638C145.729 18.994 145.967 18.4853 146.443 18.112C146.919 17.7293 147.567 17.538 148.389 17.538C148.594 17.538 148.799 17.552 149.005 17.58C149.21 17.5987 149.401 17.6267 149.579 17.664C149.756 17.692 149.91 17.7247 150.041 17.762C150.181 17.7993 150.288 17.832 150.363 17.86L150.125 18.98C149.985 18.9053 149.765 18.8307 149.467 18.756C149.168 18.672 148.809 18.63 148.389 18.63C148.025 18.63 147.707 18.7047 147.437 18.854C147.166 18.994 147.031 19.218 147.031 19.526C147.031 19.6847 147.059 19.8247 147.115 19.946C147.18 20.0673 147.273 20.1793 147.395 20.282C147.525 20.3753 147.684 20.464 147.871 20.548C148.057 20.632 148.281 20.7207 148.543 20.814C148.888 20.9447 149.196 21.0753 149.467 21.206C149.737 21.3273 149.966 21.472 150.153 21.64C150.349 21.808 150.498 22.0133 150.601 22.256C150.703 22.4893 150.755 22.7787 150.755 23.124C150.755 23.796 150.503 24.3047 149.999 24.65C149.504 24.9953 148.795 25.168 147.871 25.168C147.227 25.168 146.723 25.112 146.359 25C145.995 24.8973 145.747 24.818 145.617 24.762L145.855 23.642C146.004 23.698 146.242 23.782 146.569 23.894C146.895 24.006 147.329 24.062 147.871 24.062Z" fill="white"/>
<path d="M16.5817 4.37891H15.0599V18.8496H16.5817V4.37891Z" fill="white"/>
<path d="M16.5808 7.72885L20.7737 5.18838L20.7737 7.06421L16.5808 9.60469L16.5808 7.72885Z" fill="white"/>
<path d="M15.067 7.73396L10.882 5.1882L10.882 7.06402L15.0669 9.60991L15.067 7.73396Z" fill="white"/>
<path d="M16.5808 11.4803L20.7737 8.93985L20.7737 10.8157L16.5808 13.3562L16.5808 11.4803Z" fill="white"/>
<path d="M15.067 11.4858L10.882 8.94006L10.882 10.8159L15.0669 13.3618L15.067 11.4858Z" fill="white"/>
<path d="M29.1392 12.9768L28.3783 11.5844L16.5804 18.8499L17.3413 20.1898L29.1392 12.9768Z" fill="white"/>
<path d="M26.3935 14.6516L30.5723 17.2178L29.0347 18.1557L24.8559 15.5895L26.3935 14.6516Z" fill="white"/>
<path d="M25.6332 13.4031L25.6274 8.30098L24.0898 9.23889L24.0955 14.341L25.6332 13.4031Z" fill="white"/>
<path d="M23.319 16.5271L27.4978 19.0933L25.9602 20.0312L21.7814 17.465L23.319 16.5271Z" fill="white"/>
<path d="M22.557 15.279L22.5512 10.1769L21.0137 11.1149L21.0137 16.2152L22.557 15.279Z" fill="white"/>
<path d="M28.3866 28.7873L29.1475 27.3949L17.3417 20.1897L16.5808 21.5296L28.3866 28.7873Z" fill="white"/>
<path d="M25.6416 26.9787L25.6276 32.0853L24.09 31.1474L24.104 26.0408L25.6416 26.9787Z" fill="white"/>
<path d="M26.3934 25.7246L30.5726 23.1683L29.035 22.2303L24.8558 24.7865L26.3934 25.7246Z" fill="white"/>
<path d="M22.5671 25.1028L22.553 30.2094L21.0154 29.2715L21.0295 24.1648L22.5671 25.1028Z" fill="white"/>
<path d="M23.3189 23.8491L27.4981 21.2928L25.9605 20.3549L21.7812 22.9111L23.3189 23.8491Z" fill="white"/>
<path d="M2.4493 12.9764L3.21021 11.584L15.0598 18.8495L14.2989 20.1894L2.4493 12.9764Z" fill="white"/>
<path d="M5.32238 14.6516L1.14359 17.2178L2.68117 18.1557L6.85997 15.5896L5.32238 14.6516Z" fill="white"/>
<path d="M6.08441 13.4027L6.09018 8.30058L7.62776 9.2385L7.62214 14.3406L6.08441 13.4027Z" fill="white"/>
<path d="M8.3969 16.5276L4.21811 19.0938L5.75569 20.0317L9.9345 17.4655L8.3969 16.5276Z" fill="white"/>
<path d="M9.15887 15.2786L9.16465 10.1765L10.7022 11.1144L10.6966 16.2165L9.15887 15.2786Z" fill="white"/>
<path d="M3.20219 28.7872L2.44128 27.3947L14.2987 20.1895L15.0596 21.5294L3.20219 28.7872Z" fill="white"/>
<path d="M6.07434 26.9783L6.08839 32.085L7.62597 31.147L7.61193 26.0404L6.07434 26.9783Z" fill="white"/>
<path d="M5.32253 25.7247L1.14333 23.1683L2.68091 22.2304L6.86017 24.7866L5.32253 25.7247Z" fill="white"/>
<path d="M9.15051 25.1028L9.16456 30.2095L10.7021 29.2715L10.6881 24.1649L9.15051 25.1028Z" fill="white"/>
<path d="M8.39699 23.8487L4.21779 21.2924L5.75537 20.3545L9.93463 22.9107L8.39699 23.8487Z" fill="white"/>
<path d="M16.5817 36H15.0599V21.5293H16.5817V36Z" fill="white"/>
<path d="M16.5808 32.6505L20.7737 35.1909L20.7737 33.3151L16.5808 30.7746L16.5808 32.6505Z" fill="white"/>
<path d="M15.067 32.6449L10.882 35.1907L10.882 33.3149L15.0669 30.769L15.067 32.6449Z" fill="white"/>
<path d="M16.5808 28.899L20.7737 31.4395L20.7737 29.5637L16.5808 27.0232L16.5808 28.899Z" fill="white"/>
<path d="M15.067 28.8931L10.882 31.4388L10.882 29.563L15.0669 27.0171L15.067 28.8931Z" fill="white"/>
<path d="M16.9614 19.5195H22.2701L23.3023 20.1895L22.2701 20.8594H16.9614V19.5195Z" fill="white"/>
<path d="M15.8206 18.8494L18.4749 14.0324L19.5402 13.4229L19.5732 14.7023L16.962 19.5193L15.8206 18.8494Z" fill="white"/>
<path d="M15.8206 21.5291L18.4749 26.3658L19.5402 26.9753L19.5732 25.6959L16.962 20.8592L15.8206 21.5291Z" fill="white"/>
<path d="M15.8206 21.5291L13.147 26.3855L12.0818 26.995L12.0488 25.7156L14.6793 20.8592L15.8206 21.5291Z" fill="white"/>
<path d="M15.8206 18.8494L13.139 14.0425L12.0737 13.433L12.0407 14.7124L14.6793 19.5193L15.8206 18.8494Z" fill="white"/>
<path d="M14.6797 19.5195H9.37111L8.33888 20.1895L9.37111 20.8594H14.6797V19.5195Z" fill="white"/>
</svg>
